<svg xmlns="http://www.w3.org/2000/svg" viewBox="0 0 82.6 90"><defs><style>.cls-1{fill:#fff;}</style></defs><title>logo-akn</title><g id="Layer_1" data-name="Layer 1"><g id="Layer_3" data-name="Layer 3"><path class="cls-1" d="M52.18,22V5.12H5.82V84.78H52.18V66.18H48.94V81.54H9.05V8.35H48.94v6.26Z"/><path class="cls-1" d="M12.34,57.65v-.88l-.5-.23V56.2l2.19,1-2.19,1v-.34Zm.3-.13.7-.3-.7-.32Z"/><path class="cls-1" d="M13.14,58.4v.3H13a.64.64,0,0,1,.12.15.27.27,0,0,1,0,.16.41.41,0,0,1-.19.35.47.47,0,0,1,.19.38c0,.3-.18.44-.53.44h-.81v-.3h.73a.56.56,0,0,0,.26,0,.19.19,0,0,0,.08-.16.19.19,0,0,0-.1-.18.58.58,0,0,0-.3,0h-.67v-.31h.72c.23,0,.35-.06.35-.2a.19.19,0,0,0-.1-.18.56.56,0,0,0-.3-.06h-.67v-.3Z"/><path class="cls-1" d="M13.14,61.52v.3h-1.3v-.3H12a.57.57,0,0,1-.17-.4.58.58,0,0,1,.19-.45.76.76,0,0,1,.5-.17.72.72,0,0,1,.48.17.59.59,0,0,1,.2.44.54.54,0,0,1-.19.41Zm-.64-.71a.45.45,0,0,0-.31.1.3.3,0,0,0-.12.25.33.33,0,0,0,.12.27.46.46,0,0,0,.6,0,.34.34,0,0,0,0-.52A.43.43,0,0,0,12.5,60.81Z"/><path class="cls-1" d="M13.14,62.2v.3H13a.46.46,0,0,1,.16.35.49.49,0,0,1-.14.36.64.64,0,0,1-.4.1h-.8V63h.73a.41.41,0,0,0,.26,0,.21.21,0,0,0,.08-.19.22.22,0,0,0-.1-.21.68.68,0,0,0-.34-.06h-.63v-.3Z"/><path class="cls-1" d="M14.09,64.65V65H11.84v-.3H12a.54.54,0,0,1-.17-.4.55.55,0,0,1,.19-.44.71.71,0,0,1,.5-.18.68.68,0,0,1,.48.18.55.55,0,0,1,.2.43.54.54,0,0,1-.19.41Zm-1.59-.71a.45.45,0,0,0-.31.1.32.32,0,0,0-.12.26.34.34,0,0,0,.12.27.5.5,0,0,0,.6,0,.34.34,0,0,0,.12-.27.34.34,0,0,0-.12-.26A.43.43,0,0,0,12.5,63.94Z"/><path class="cls-1" d="M13.14,66.29v.3h-1.3v-.3H12a.57.57,0,0,1-.17-.4.58.58,0,0,1,.19-.45.76.76,0,0,1,.5-.17.72.72,0,0,1,.48.17.57.57,0,0,1,.2.44.54.54,0,0,1-.19.41Zm-.64-.72a.5.5,0,0,0-.31.1.34.34,0,0,0-.12.26.34.34,0,0,0,.12.27.5.5,0,0,0,.6,0,.34.34,0,0,0,.12-.26.32.32,0,0,0-.12-.26A.44.44,0,0,0,12.5,65.57Z"/><path class="cls-1" d="M11.84,67.86H14l-1.57,1.5H13.9v.32H11.72l1.56-1.51H11.84Z"/><path class="cls-1" d="M13.14,70.41h-1.3v-.3h1.3Zm.54-.34a.2.2,0,0,1,.14.33.19.19,0,0,1-.28,0,.18.18,0,0,1-.06-.14.2.2,0,0,1,.06-.14A.19.19,0,0,1,13.68,70.07Z"/><path class="cls-1" d="M12.42,72V71a.36.36,0,0,0-.25.11.33.33,0,0,0-.1.23.29.29,0,0,0,.06.19.75.75,0,0,0,.2.16l-.15.25L12,71.86a.76.76,0,0,1-.11-.14.46.46,0,0,1-.07-.16.58.58,0,0,1,0-.19A.64.64,0,0,1,12,70.9a.82.82,0,0,1,1,0,.65.65,0,0,1,0,.91.74.74,0,0,1-.51.16Zm.25-.31a.28.28,0,0,0,.24-.3.36.36,0,0,0,0-.1.41.41,0,0,0-.05-.09l-.07-.07-.1,0Z"/><path class="cls-1" d="M14.09,72.6H11.84v-.3h2.25Z"/><path class="cls-1" d="M12.92,73.73l-.13-.24q.12-.06.12-.15a.1.1,0,0,0-.1-.1c-.05,0-.1.06-.15.17a.8.8,0,0,1-.19.32.29.29,0,0,1-.23.09.41.41,0,0,1-.31-.14.48.48,0,0,1-.12-.33.47.47,0,0,1,.32-.46l.11.26a.27.27,0,0,0-.11.08.16.16,0,0,0-.06.13c0,.1,0,.15.14.15s.11,0,.15-.12l.05-.09,0-.09a.46.46,0,0,1,.13-.18.28.28,0,0,1,.21-.07.38.38,0,0,1,.28.12.4.4,0,0,1-.15.65Z"/><path class="cls-1" d="M12.42,75.27v-.93a.4.4,0,0,0-.25.1.33.33,0,0,0-.1.24.28.28,0,0,0,.06.18.6.6,0,0,0,.2.17l-.15.25L12,75.16A1.34,1.34,0,0,1,11.9,75a.51.51,0,0,1-.07-.17.52.52,0,0,1,0-.18A.63.63,0,0,1,12,74.2a.78.78,0,0,1,1,0,.55.55,0,0,1,.19.45.58.58,0,0,1-.18.45.75.75,0,0,1-.51.17Zm.25-.31a.28.28,0,0,0,.24-.3.3.3,0,0,0,0-.1.19.19,0,0,0-.05-.09.23.23,0,0,0-.07-.07l-.1,0Z"/><path class="cls-1" d="M13.14,75.6v.3H13a.46.46,0,0,1,.16.35.45.45,0,0,1-.14.35.58.58,0,0,1-.4.11h-.8v-.3h.73a.49.49,0,0,0,.26,0,.23.23,0,0,0,.08-.19.22.22,0,0,0-.1-.21.68.68,0,0,0-.34-.06h-.63v-.3Z"/><path class="cls-1" d="M72.64,55.34v18L62.12,56.79,51.71,33l-3.23-7.39-1-2.38L24.83,73.06h7.43l5.09-11.39H55.93V84.75H61.2V67.68l3.58,5.38,2,3,5.86,8.81h5.3V55.34ZM40.22,55l7.1-15.93h0l1.16,2.73,3.23,7.61h0L54.09,55Z"/></g></g></svg>